<?xml version="1.0" encoding="UTF-8" ?>
<svg version="1.1" width="64" height="32" xmlns="http://www.w3.org/2000/svg" shape-rendering="crispEdges">
<rect x="0" y="0" width="64" height="1" fill="#8F563B" />
<rect x="0" y="1" width="1" height="31" fill="#8F563B" />
<rect x="1" y="1" width="62" height="1" fill="#000000" />
<rect x="63" y="1" width="1" height="31" fill="#8F563B" />
<rect x="1" y="2" width="1" height="29" fill="#000000" />
<rect x="2" y="2" width="60" height="1" fill="#663931" />
<rect x="62" y="2" width="1" height="29" fill="#000000" />
<rect x="2" y="3" width="1" height="27" fill="#663931" />
<rect x="3" y="3" width="58" height="1" fill="#000000" />
<rect x="61" y="3" width="1" height="27" fill="#663931" />
<rect x="3" y="4" width="1" height="25" fill="#000000" />
<rect x="4" y="4" width="56" height="24" fill="#FFFFFF" />
<rect x="60" y="4" width="1" height="25" fill="#000000" />
<rect x="4" y="28" width="56" height="1" fill="#000000" />
<rect x="3" y="29" width="58" height="1" fill="#663931" />
<rect x="2" y="30" width="60" height="1" fill="#000000" />
<rect x="1" y="31" width="62" height="1" fill="#8F563B" />
</svg>